<?xml version="1.0" encoding="utf-8"?>
<!-- Generator: Adobe Illustrator 25.4.1, SVG Export Plug-In . SVG Version: 6.00 Build 0)  -->
<svg version="1.1" id="Layer_1" xmlns="http://www.w3.org/2000/svg" xmlns:xlink="http://www.w3.org/1999/xlink" x="0px" y="0px"
	 viewBox="0 0 56.2 56.2" style="enable-background:new 0 0 56.2 56.2;" xml:space="preserve">
<style type="text/css">
	.st0{enable-background:new    ;}
	.st1{fill:#000000;}
</style>
<g id="Layer_2_1_">
	<g id="Layer_4">
		<g class="st0">
			<g>
				<path class="st1" d="M9,23.3h1.8l4.6,6.1h0.1v-6.1H17v8.4h-1.7l-4.7-6.2h-0.1v6.2H9V23.3z"/>
			</g>
			<g>
				<path class="st1" d="M17.9,27.6c0-2.4,1.7-4.5,4.8-4.5c1.3,0,2.5,0.4,3.2,1v1.6l0,0C25,25,24,24.6,22.7,24.6
					c-2,0-3.2,1.3-3.2,3.1c0,1.7,1.1,2.9,3,2.9c1.6,0,2.7-0.8,2.8-2.3h-3.2V27h4.7c0,0.2,0,0.3,0,0.6c0,3.1-2.1,4.3-4.4,4.3
					C19.6,31.9,17.9,30.1,17.9,27.6z"/>
			</g>
			<g>
				<path class="st1" d="M27.7,23.3h6.8l0.1,1.4h-5.4V27h4.5v1.4h-4.5v3.4h-1.5C27.7,31.8,27.7,23.3,27.7,23.3z"/>
			</g>
			<g>
				<path class="st1" d="M34.8,23.3h1.6l1.9,6.9h0.2l2.3-6.9h1.5l2.3,6.9h0.2l1.8-6.9h1.6l-2.4,8.4h-2.2l-2.1-6.2h-0.1l-2.1,6.2H37
					L34.8,23.3z"/>
			</g>
		</g>
		<g>
			<path class="st1" d="M50.1,56.1H6c-3.3,0-6-2.7-6-6V6c0-3.3,2.7-6,6-6h44.1c3.3,0,6,2.7,6,6v44.1C56.1,53.4,53.4,56.1,50.1,56.1z
				 M6,2C3.9,2,2,3.9,2,6v44.1c0,2.2,1.8,4,4,4h44.1c2.2,0,4-1.8,4-4V6c0-2.2-1.8-4-4-4H6z"/>
		</g>
		<g>
			<path class="st1" d="M46.1,50.2h-0.8c-0.3,0-0.5-0.2-0.5-0.5s0.2-0.5,0.5-0.5h1c0.3,0,0.5,0.2,0.5,0.5s-0.2,0.5-0.5,0.5H46.1z
				 M42.3,50.2h-1c-0.3,0-0.5-0.2-0.5-0.5s0.2-0.5,0.5-0.5h1c0.3,0,0.5,0.2,0.5,0.5S42.6,50.2,42.3,50.2z M38.3,50.2h-1
				c-0.3,0-0.5-0.2-0.5-0.5s0.2-0.5,0.5-0.5h1c0.3,0,0.5,0.2,0.5,0.5S38.6,50.2,38.3,50.2z M34.3,50.2h-1c-0.3,0-0.5-0.2-0.5-0.5
				s0.2-0.5,0.5-0.5h1c0.3,0,0.5,0.2,0.5,0.5S34.6,50.2,34.3,50.2z M30.4,50.2h-1c-0.3,0-0.5-0.2-0.5-0.5s0.2-0.5,0.5-0.5h1
				c0.3,0,0.5,0.2,0.5,0.5S30.7,50.2,30.4,50.2z M26.4,50.2h-1c-0.3,0-0.5-0.2-0.5-0.5s0.2-0.5,0.5-0.5h1c0.3,0,0.5,0.2,0.5,0.5
				S26.7,50.2,26.4,50.2z M22.4,50.2h-1c-0.3,0-0.5-0.2-0.5-0.5s0.2-0.5,0.5-0.5h1c0.3,0,0.5,0.2,0.5,0.5S22.7,50.2,22.4,50.2z
				 M18.5,50.2h-1c-0.3,0-0.5-0.2-0.5-0.5s0.2-0.5,0.5-0.5h1c0.3,0,0.5,0.2,0.5,0.5S18.7,50.2,18.5,50.2z M14.5,50.2h-1
				c-0.3,0-0.5-0.2-0.5-0.5s0.2-0.5,0.5-0.5h1c0.3,0,0.5,0.2,0.5,0.5S14.8,50.2,14.5,50.2z M10.5,50.2H10c-0.2,0-0.4,0-0.5,0
				c-0.3,0-0.5-0.3-0.4-0.6c0-0.3,0.3-0.5,0.6-0.4c0.1,0,0.3,0,0.4,0h0.5c0.3,0,0.5,0.2,0.5,0.5S10.8,50.2,10.5,50.2z M48.9,48.9
				c-0.1,0-0.2,0-0.3-0.1c-0.2-0.2-0.2-0.5-0.1-0.7c0.2-0.2,0.3-0.5,0.5-0.7c0.1-0.3,0.4-0.4,0.7-0.3c0.3,0.1,0.4,0.4,0.3,0.7
				c-0.2,0.3-0.4,0.7-0.6,1C49.1,48.9,49,48.9,48.9,48.9z M7.1,48.7c-0.2,0-0.3-0.1-0.4-0.2c-0.2-0.3-0.4-0.6-0.5-1
				c-0.1-0.3,0-0.5,0.3-0.6s0.5,0,0.6,0.3s0.2,0.5,0.4,0.8c0.2,0.2,0.1,0.5-0.1,0.7C7.3,48.7,7.2,48.7,7.1,48.7z M49.7,45.2
				c-0.3,0-0.5-0.2-0.5-0.5v-1c0-0.3,0.2-0.5,0.5-0.5s0.5,0.2,0.5,0.5v1C50.2,44.9,50,45.2,49.7,45.2z M6.4,44.8
				c-0.3,0-0.5-0.2-0.5-0.5v-1c0-0.3,0.2-0.5,0.5-0.5s0.5,0.2,0.5,0.5v1C6.9,44.6,6.7,44.8,6.4,44.8z M49.7,41.2
				c-0.3,0-0.5-0.2-0.5-0.5v-1c0-0.3,0.2-0.5,0.5-0.5s0.5,0.2,0.5,0.5v1C50.2,41,50,41.2,49.7,41.2z M6.4,40.9
				c-0.3,0-0.5-0.2-0.5-0.5v-1c0-0.3,0.2-0.5,0.5-0.5s0.5,0.2,0.5,0.5v1C6.9,40.7,6.7,40.9,6.4,40.9z M49.7,37.2
				c-0.3,0-0.5-0.2-0.5-0.5v-1c0-0.3,0.2-0.5,0.5-0.5s0.5,0.2,0.5,0.5v1C50.2,37,50,37.2,49.7,37.2z M6.4,36.9
				c-0.3,0-0.5-0.2-0.5-0.5v-1c0-0.3,0.2-0.5,0.5-0.5s0.5,0.2,0.5,0.5v1C6.9,36.7,6.7,36.9,6.4,36.9z M49.7,33.2
				c-0.3,0-0.5-0.2-0.5-0.5v-1c0-0.3,0.2-0.5,0.5-0.5s0.5,0.2,0.5,0.5v1C50.2,33,50,33.2,49.7,33.2z M6.4,32.9
				c-0.3,0-0.5-0.2-0.5-0.5v-1c0-0.3,0.2-0.5,0.5-0.5s0.5,0.2,0.5,0.5v1C6.9,32.7,6.7,32.9,6.4,32.9z M49.7,29.3
				c-0.3,0-0.5-0.2-0.5-0.5v-1c0-0.3,0.2-0.5,0.5-0.5s0.5,0.2,0.5,0.5v1C50.2,29.1,50,29.3,49.7,29.3z M6.4,29
				c-0.3,0-0.5-0.2-0.5-0.5v-1c0-0.3,0.2-0.5,0.5-0.5s0.5,0.2,0.5,0.5v1C6.9,28.7,6.7,29,6.4,29z M49.7,25.3c-0.3,0-0.5-0.2-0.5-0.5
				v-1c0-0.3,0.2-0.5,0.5-0.5s0.5,0.2,0.5,0.5v1C50.2,25.1,50,25.3,49.7,25.3z M6.4,25c-0.3,0-0.5-0.2-0.5-0.5v-1
				c0-0.3,0.2-0.5,0.5-0.5s0.5,0.2,0.5,0.5v1C6.9,24.8,6.7,25,6.4,25z M49.7,21.3c-0.3,0-0.5-0.2-0.5-0.5v-1c0-0.3,0.2-0.5,0.5-0.5
				s0.5,0.2,0.5,0.5v1C50.2,21.1,50,21.3,49.7,21.3z M6.4,21c-0.3,0-0.5-0.2-0.5-0.5v-1c0-0.3,0.2-0.5,0.5-0.5s0.5,0.2,0.5,0.5v1
				C6.9,20.8,6.7,21,6.4,21z M49.7,17.4c-0.3,0-0.5-0.2-0.5-0.5v-1c0-0.3,0.2-0.5,0.5-0.5s0.5,0.2,0.5,0.5v1
				C50.2,17.1,50,17.4,49.7,17.4z M6.4,17.1c-0.3,0-0.5-0.2-0.5-0.5v-1c0-0.3,0.2-0.5,0.5-0.5s0.5,0.2,0.5,0.5v1
				C6.9,16.8,6.7,17.1,6.4,17.1z M49.7,13.4c-0.3,0-0.5-0.2-0.5-0.5v-1c0-0.3,0.2-0.5,0.5-0.5s0.5,0.2,0.5,0.5v1
				C50.2,13.2,50,13.4,49.7,13.4z M6.4,13.1c-0.3,0-0.5-0.2-0.5-0.5v-1c0-0.3,0.2-0.5,0.5-0.5s0.5,0.2,0.5,0.5v1
				C6.9,12.9,6.7,13.1,6.4,13.1z M49.5,9.4c-0.2,0-0.4-0.1-0.5-0.4c-0.1-0.3-0.2-0.5-0.4-0.8c-0.1-0.2-0.1-0.5,0.2-0.7
				c0.2-0.1,0.5-0.1,0.7,0.1c0.2,0.3,0.4,0.7,0.5,1s-0.1,0.5-0.3,0.6C49.6,9.4,49.6,9.4,49.5,9.4z M6.7,9.2c-0.1,0-0.1,0-0.2,0
				C6.2,9,6.1,8.7,6.2,8.5c0.1-0.3,0.3-0.7,0.6-1C7,7.3,7.3,7.2,7.5,7.4c0.2,0.2,0.3,0.5,0.1,0.7C7.4,8.3,7.2,8.6,7.1,8.8
				S6.9,9.2,6.7,9.2z M46.7,7C46.7,7,46.7,6.9,46.7,7c-0.3,0-0.4-0.1-0.6-0.1h-0.4c-0.3,0-0.5-0.2-0.5-0.5s0.2-0.5,0.5-0.5h0.4
				c0.2,0,0.5,0,0.7,0.1c0.3,0,0.5,0.3,0.4,0.6C47.2,6.8,47,7,46.7,7z M9.7,6.9c-0.3,0-0.5-0.2-0.5-0.5s0.2-0.5,0.5-0.5
				c0.1,0,0.2,0,0.3,0h1c0.3,0,0.5,0.2,0.5,0.5S11.3,6.9,11,6.9h-1C9.9,6.9,9.8,6.9,9.7,6.9L9.7,6.9z M42.8,6.9h-1
				c-0.3,0-0.5-0.2-0.5-0.5s0.2-0.5,0.5-0.5h1c0.3,0,0.5,0.2,0.5,0.5S43,6.9,42.8,6.9z M38.8,6.9h-1c-0.3,0-0.5-0.2-0.5-0.5
				s0.2-0.5,0.5-0.5h1c0.3,0,0.5,0.2,0.5,0.5S39.1,6.9,38.8,6.9z M34.8,6.9h-1c-0.3,0-0.5-0.2-0.5-0.5s0.2-0.5,0.5-0.5h1
				c0.3,0,0.5,0.2,0.5,0.5S35.1,6.9,34.8,6.9z M30.8,6.9h-1c-0.3,0-0.5-0.2-0.5-0.5s0.2-0.5,0.5-0.5h1c0.3,0,0.5,0.2,0.5,0.5
				S31.1,6.9,30.8,6.9z M26.9,6.9h-1c-0.3,0-0.5-0.2-0.5-0.5s0.2-0.5,0.5-0.5h1c0.3,0,0.5,0.2,0.5,0.5S27.1,6.9,26.9,6.9z M22.9,6.9
				h-1c-0.3,0-0.5-0.2-0.5-0.5s0.2-0.5,0.5-0.5h1c0.3,0,0.5,0.2,0.5,0.5S23.2,6.9,22.9,6.9z M18.9,6.9h-1c-0.3,0-0.5-0.2-0.5-0.5
				s0.2-0.5,0.5-0.5h1c0.3,0,0.5,0.2,0.5,0.5S19.2,6.9,18.9,6.9z M15,6.9h-1c-0.3,0-0.5-0.2-0.5-0.5s0.2-0.5,0.5-0.5h1
				c0.3,0,0.5,0.2,0.5,0.5S15.2,6.9,15,6.9z"/>
		</g>
	</g>
</g>
</svg>
